PathFileType	4	(X/Y/Z)	D:\luciana\vassoio.trc
DataRate	CameraRate	NumFrames	NumMarkers	Units	OrigDataRate	OrigDataStartFrame	OrigNumFrames
250.00	250.00	15	20	mm	250.00	369	2051
Frame#	Time	pelvisR			Trunk1			Trunk2			Trunk3			C7			shoulder			upperArm1			upperArm2			upperArm3			elbow			forearm1			forearm2			forearm3			wrist1			wrist2			wrist3			Object1			Hand			Object2			Object3			
		X1	Y1	Z1	X2	Y2	Z2	X3	Y3	Z3	X4	Y4	Z4	X5	Y5	Z5	X6	Y6	Z6	X7	Y7	Z7	X8	Y8	Z8	X9	Y9	Z9	X10	Y10	Z10	X11	Y11	Z11	X12	Y12	Z12	X13	Y13	Z13	X14	Y14	Z14	X15	Y15	Z15	X16	Y16	Z16	X17	Y17	Z17	X18	Y18	Z18	X19	Y19	Z19	X20	Y20	Z20	

368	1.472000	1707.345843	666.516364	733.117163	1483.942747	866.791725	636.912286	1545.891404	813.726664	634.694219	1456.235528	775.575459	634.389579	1549.677730	1131.279707	815.650642	1722.984552	1053.524971	761.587143	1798.008204	878.024220	853.798747	1847.553372	888.205051	798.689365	1796.796918	888.008118	730.319381	1829.913616	753.278375	773.082197	1873.693585	698.254168	718.204021	1819.083691	657.904983	763.363659	1830.605268	749.554038	683.649957	1847.065926	671.442270	575.981438	1830.056190	603.153944	613.108635	1782.097936	708.690107	573.841691	1558.599472	578.802824	482.134581	1825.968385	603.264451	506.324470	1639.236569	552.080512	395.412803	1495.925188	552.457452	395.120442	
369	1.476000	1707.348943	666.520059	733.127356	1483.951211	866.784692	636.924267	1545.888305	813.723207	634.707451	1456.239223	775.579631	634.401977	1549.686909	1131.269932	815.679312	1722.979546	1053.502679	761.608064	1798.012018	878.017306	853.819013	1847.573757	888.202548	798.711836	1796.806216	887.988448	730.336666	1829.952717	753.268778	773.103714	1873.719573	698.282480	718.183637	1819.131494	657.913864	763.362825	1830.595016	749.579549	683.667660	1847.043276	671.494126	575.985253	1830.055356	603.182077	613.110840	1782.062531	708.731890	573.849678	1558.588266	578.803241	482.132375	1825.958610	603.352070	506.348610	1639.256597	552.100062	395.423651	1495.924354	552.462816	395.122349	
370	1.480000	1707.347035	666.520178	733.136654	1483.922601	866.787553	636.933863	1545.886517	813.717127	634.724617	1456.242561	775.582075	634.415865	1549.686193	1131.265759	815.710664	1722.975016	1053.489566	761.617899	1798.024058	878.001988	853.847146	1847.586393	888.212323	798.734963	1796.808243	887.969315	730.355263	1829.988599	753.266811	773.141086	1873.738050	698.312104	718.158841	1819.183469	657.910645	763.378382	1830.596089	749.608040	683.677614	1847.017765	671.548367	575.974464	1830.046892	603.226006	613.110244	1782.021165	708.774030	573.867798	1558.573961	578.795314	482.128501	1825.933814	603.448391	506.356478	1639.228821	552.064717	395.446628	1495.909929	552.455604	395.127386	
371	1.484000	1707.339287	666.523457	733.136594	1483.918786	866.780818	636.946738	1545.884967	813.711762	634.735703	1456.240892	775.588453	634.416223	1549.695015	1131.262064	815.728188	1722.977161	1053.473353	761.632323	1798.032284	877.999187	853.876889	1847.588181	888.213158	798.751116	1796.821237	887.968481	730.378211	1830.018401	753.275216	773.163199	1873.744488	698.326409	718.140721	1819.235563	657.916725	763.383925	1830.596209	749.637902	683.696508	1846.990585	671.607494	575.968266	1830.040812	603.285611	613.107562	1781.976342	708.822608	573.887229	1558.576584	578.796327	482.121080	1825.913668	603.546023	506.364107	1639.219284	552.061558	395.446897	1495.892048	552.447021	395.119190	
372	1.488000	1707.345486	666.530132	733.135104	1483.932853	866.775870	636.973679	1545.879126	813.704610	634.748995	1456.237435	775.594831	634.423077	1549.689054	1131.265402	815.740764	1722.979426	1053.456783	761.653244	1798.053265	878.012538	853.907347	1847.604752	888.219297	798.784375	1796.828032	887.960196	730.387628	1830.056190	753.279388	773.200929	1873.755813	698.330998	718.119025	1819.280386	657.921314	763.373494	1830.600739	749.658704	683.717728	1846.957207	671.665847	575.962007	1830.051303	603.322506	613.105357	1781.931162	708.869338	573.907375	1558.570743	578.809500	482.120961	1825.883269	603.649676	506.381154	1639.198780	552.079439	395.435572	1495.867848	552.440166	395.135880	
373	1.492000	1707.339644	666.518152	733.133197	1483.929396	866.788626	636.983812	1545.873404	813.709080	634.759247	1456.231356	775.592327	634.440541	1549.702168	1131.265640	815.774083	1722.974539	1053.441405	761.667609	1798.067451	878.011584	853.929520	1847.617865	888.225734	798.806310	1796.830177	887.948751	730.416477	1830.094099	753.283024	773.222029	1873.775244	698.347330	718.108475	1819.312811	657.924652	763.369322	1830.603480	749.674559	683.741748	1846.928239	671.726942	575.946689	1830.064416	603.386283	613.088667	1781.882644	708.922207	573.930204	1558.552980	578.820407	482.134283	1825.847864	603.740335	506.385088	1639.336109	552.158356	395.399153	1495.823383	552.457571	395.133287	
374	1.496000	1707.339525	666.511059	733.141184	1483.939171	866.831541	636.993885	1545.877457	813.718617	634.777188	1456.223845	775.591075	634.461761	1549.709558	1131.271124	815.812945	1722.978592	1053.428173	761.689007	1798.080444	878.004670	853.951216	1847.632527	888.230503	798.816681	1796.843886	887.935936	730.460167	1830.139041	753.288746	773.245513	1873.791575	698.371470	718.103051	1819.356680	657.921851	763.359666	1830.615640	749.711931	683.762670	1846.898794	671.799183	575.928569	1830.049992	603.436351	613.054276	1781.849384	708.979726	573.951781	1558.539748	578.826427	482.149005	1825.822234	603.834510	506.410360	1639.277220	552.157640	395.405352	1495.827675	552.473962	395.134121	
375	1.500000	1707.336068	666.516960	733.152330	1483.980775	866.863668	636.986196	1545.882583	813.725293	634.791732	1456.216455	775.597036	634.465456	1549.715042	1131.276846	815.844536	1722.984195	1053.408980	761.718094	1798.104286	878.005922	853.973448	1847.647667	888.245583	798.849165	1796.853423	887.930572	730.480134	1830.190182	753.294051	773.270726	1873.821735	698.388338	718.086064	1819.404840	657.930434	763.359189	1830.621362	749.743581	683.778346	1846.882343	671.870112	575.918674	1830.056190	603.490114	613.041222	1781.818151	709.043980	573.967040	1558.542252	578.829646	482.140124	1825.801373	603.932619	506.431699	1639.233589	552.173615	395.416260	1495.822668	552.487791	395.132184	
376	1.504000	1707.336664	666.508436	733.163118	1483.927369	866.824985	637.025356	1545.891404	813.743114	634.798706	1456.223488	775.608897	634.465933	1549.718142	1131.282806	815.876365	1722.983718	1053.385973	761.741161	1798.136711	877.998650	854.002118	1847.659588	888.261080	798.880100	1796.854377	887.934625	730.492294	1830.247521	753.297329	773.293078	1873.855352	698.417723	718.051791	1819.459915	657.937527	763.359129	1830.633640	749.767601	683.800399	1846.862793	671.943784	575.898230	1830.051303	603.566289	613.007307	1781.796694	709.112108	573.991776	1558.561802	578.848600	482.117444	1825.759292	604.022205	506.429732	1639.216900	552.191973	395.402759	1495.832801	552.497327	395.132422	
377	1.508000	1707.333326	666.508019	733.159781	1483.899236	866.809249	637.052715	1545.889974	813.762009	634.805501	1456.236362	775.611877	634.478509	1549.738884	1131.292939	815.910578	1722.979903	1053.372860	761.757135	1798.159719	877.990663	854.042590	1847.677350	888.272047	798.896372	1796.852827	887.927830	730.518758	1830.306053	753.297508	773.316503	1873.902321	698.444784	718.037844	1819.509149	657.938600	763.355434	1830.649495	749.805570	683.828115	1846.842527	672.014654	575.879812	1830.046296	603.645086	612.996817	1781.789660	709.187627	574.020326	1558.563590	578.860819	482.122123	1825.711131	604.113936	506.440997	1639.218092	552.221656	395.394027	1495.793104	552.501798	395.124137	
378	1.512000	1707.322121	666.513443	733.141541	1483.872771	866.805673	637.085497	1545.897722	813.780427	634.818077	1456.223726	775.630474	634.480417	1549.733758	1131.304383	815.944552	1722.977161	1053.352118	761.785865	1798.192739	877.991199	854.069948	1847.690821	888.285697	798.907995	1796.863794	887.914002	730.545938	1830.353260	753.313899	773.345470	1873.933196	698.459327	718.019128	1819.569707	657.943845	763.344049	1830.658555	749.843419	683.848500	1846.834302	672.070563	575.873971	1830.043316	603.696406	612.992585	1781.785965	709.271073	574.039996	1558.563352	578.887939	482.133061	1825.670004	604.183137	506.461501	1639.163971	552.227855	395.383805	1495.795369	552.527547	395.120651	
379	1.516000	1707.327962	666.515708	733.141303	1483.869553	866.821289	637.109578	1545.901537	813.788593	634.839416	1456.225634	775.646567	634.487510	1549.758554	1131.308436	815.989852	1722.990751	1053.332806	761.817813	1798.224926	877.997637	854.100227	1847.716212	888.299167	798.936486	1796.884060	887.909055	730.591536	1830.399036	753.325343	773.367643	1873.978734	698.492169	717.998266	1819.988728	657.675982	763.511896	1830.678225	749.865532	683.861852	1846.831918	672.119141	575.865865	1830.043912	603.737712	612.986982	1781.793952	709.353268	574.057639	1558.558702	578.897536	482.129514	1825.619817	604.248762	506.474197	1639.161587	552.242696	395.379514	1495.844483	552.539408	395.137876	
380	1.520000	1707.340479	666.514516	733.140886	1483.883858	866.869211	637.097478	1545.890570	813.795209	634.853184	1456.229448	775.663137	634.500504	1549.759746	1131.309271	816.031277	1723.002076	1053.312898	761.854291	1798.252225	877.990127	854.133964	1847.743511	888.315558	798.970938	1796.904325	887.907147	730.634570	1830.464482	753.324568	773.397803	1874.023795	698.513150	717.966616	1820.515633	657.317400	763.730407	1830.704451	749.899864	683.881760	1846.842408	672.174037	575.853288	1830.029130	603.768706	612.982512	1781.811476	709.427834	574.076891	1558.563352	578.899503	482.126474	1825.607777	604.326844	506.491840	1639.063358	552.235961	395.406336	1495.876551	552.548051	395.135790	
381	1.524000	1707.339764	666.516900	733.144820	1483.872414	866.896391	637.107730	1545.896173	813.818276	634.862065	1456.235409	775.683582	634.509563	1549.773812	1131.314754	816.068769	1723.014355	1053.295612	761.903226	1798.285246	877.988100	854.168177	1847.776532	888.328731	799.006402	1796.931267	887.896717	730.653822	1830.539703	753.322959	773.419142	1874.083519	698.537707	717.939734	1819.985509	657.803535	763.429046	1830.743790	749.939501	683.898687	1846.863866	672.216773	575.842917	1830.016255	603.843212	612.959504	1781.851649	709.499657	574.090004	1558.572292	578.915834	482.126296	1825.570822	604.377687	506.515622	1639.112949	552.263677	395.399749	1495.852709	552.552342	395.129144	
382	1.528000	1707.336664	666.505814	733.127177	1483.869314	866.912007	637.125909	1545.896888	813.826919	634.879231	1456.242323	775.698543	634.511948	1549.764872	1131.311178	816.100478	1723.011971	1053.278685	761.920691	1798.313856	877.991676	854.197264	1847.807169	888.338804	799.045444	1796.965361	887.885332	730.671287	1830.621362	753.334403	773.454189	1874.143243	698.549867	717.907310	1819.894671	657.932401	763.342381	1830.779791	749.959648	683.902144	1846.886039	672.257602	575.834990	1830.022335	603.887200	612.930417	1781.893134	709.572315	574.102938	1558.551073	578.927457	482.128322	1825.538635	604.439139	506.526351	1639.196515	552.296996	395.387024	1495.849848	552.559376	395.125687	
